<svg width="106" height="115" viewBox="0 0 106 115" fill="none" xmlns="http://www.w3.org/2000/svg">
<g clip-path="url(#clip0)">
<path d="M32.3268 107.837C32.3268 107.837 27.5379 99.3256 20.321 96.8727C17.2924 95.8437 16.0093 95.2753 14.2014 92.6293" stroke="#E6E6E6" stroke-width="2" stroke-miterlimit="10"/>
<path d="M16.1504 100.072C17.2331 99.6962 19.6901 96.6397 19.6901 96.6397C19.6901 96.6397 15.8725 95.7636 14.7897 96.1396C14.2867 96.3324 13.8781 96.7139 13.6503 97.2034C13.4226 97.6928 13.3935 98.2519 13.5691 98.7626C13.7448 99.2732 14.1115 99.6953 14.5917 99.9397C15.0719 100.184 15.6281 100.232 16.1427 100.072L16.1504 100.072Z" fill="#E6E6E6"/>
<path d="M23.386 104.378C24.516 104.191 27.4567 101.596 27.4567 101.596C27.4567 101.596 23.841 100.085 22.7104 100.272C22.4416 100.317 22.1841 100.414 21.9528 100.558C21.7214 100.702 21.5206 100.891 21.3619 101.113C21.2032 101.335 21.0897 101.587 21.0278 101.853C20.9659 102.119 20.9569 102.395 21.0013 102.664C21.0456 102.934 21.1425 103.192 21.2864 103.424C21.4302 103.656 21.6183 103.858 21.8397 104.017C22.0612 104.176 22.3117 104.29 22.5771 104.352C22.8424 104.414 23.1173 104.423 23.3861 104.379L23.386 104.378Z" fill="#E6E6E6"/>
<path d="M12.9025 89.6996C13.8401 90.3587 15.3732 93.9757 15.3732 93.9757C15.3732 93.9757 11.4608 93.7684 10.5222 93.1099C10.2965 92.9541 10.1038 92.7549 9.9552 92.524C9.80661 92.2931 9.70509 92.035 9.65649 91.7645C9.60788 91.494 9.61316 91.2166 9.67202 90.9482C9.73087 90.6798 9.84214 90.4257 9.99939 90.2006C10.1566 89.9756 10.3568 89.784 10.5882 89.6369C10.8197 89.4898 11.0779 89.3902 11.348 89.3437C11.618 89.2973 11.8946 89.3049 12.1617 89.3662C12.4288 89.4275 12.6811 89.5413 12.9042 89.7009L12.9025 89.6996Z" fill="#E6E6E6"/>
<path d="M31.9923 107.632C31.9923 107.632 30.8559 95.8319 24.0537 89.555C21.2 86.92 19.2176 83.4751 18.5105 79.6455C18.1775 77.8303 18.0114 75.9883 18.0142 74.1426" stroke="#535461" stroke-width="2" stroke-miterlimit="10"/>
<path d="M13.754 70.1616C14.273 71.4547 18.1128 74.2601 18.1128 74.2601C18.1128 74.2601 18.9399 69.5676 18.4209 68.2744C18.2989 67.9645 18.117 67.6819 17.8857 67.4428C17.6544 67.2036 17.3782 67.0128 17.073 66.8812C16.7679 66.7496 16.4398 66.6799 16.1076 66.676C15.7754 66.6721 15.4458 66.7342 15.1377 66.8587C14.8296 66.9832 14.549 67.1675 14.3122 67.4012C14.0754 67.6349 13.8871 67.9132 13.758 68.2202C13.6289 68.5272 13.5617 68.8568 13.5601 69.19C13.5585 69.5232 13.6227 69.8534 13.7489 70.1616H13.754Z" fill="#A55EEA"/>
<path d="M12.7721 78.8817C13.9085 79.6834 18.6525 79.9456 18.6525 79.9456C18.6525 79.9456 16.8052 75.5558 15.6688 74.7529C15.3987 74.5607 15.0933 74.4239 14.7704 74.3504C14.4474 74.2768 14.1131 74.268 13.7867 74.3243C13.4603 74.3806 13.1482 74.501 12.8683 74.6785C12.5884 74.8561 12.3461 75.0873 12.1555 75.359C11.9649 75.6306 11.8296 75.9373 11.7574 76.2615C11.6852 76.5857 11.6775 76.9211 11.7348 77.2483C11.792 77.5755 11.9131 77.8881 12.0911 78.1682C12.2691 78.4484 12.5005 78.6905 12.772 78.8808L12.7721 78.8817Z" fill="#A55EEA"/>
<path d="M17.859 91.0506C19.248 91.1671 23.4704 88.9913 23.4704 88.9913C23.4704 88.9913 19.6659 86.1339 18.2808 86.0212C17.9476 85.9858 17.6107 86.0175 17.2899 86.1144C16.9691 86.2113 16.6708 86.3716 16.4126 86.5857C16.1543 86.7997 15.9413 87.0634 15.786 87.3612C15.6307 87.659 15.5362 87.9849 15.5081 88.3197C15.48 88.6546 15.5189 88.9918 15.6224 89.3114C15.726 89.631 15.8921 89.9267 16.1111 90.181C16.33 90.4354 16.5974 90.6433 16.8976 90.7926C17.1977 90.942 17.5246 91.0297 17.859 91.0506Z" fill="#A55EEA"/>
<path d="M23.7735 99.3896C25.1194 99.7391 29.6513 98.3105 29.6513 98.3105C29.6513 98.3105 26.3822 94.8528 25.0374 94.5033C24.7171 94.4188 24.3832 94.3985 24.0551 94.4437C23.7269 94.4888 23.4109 94.5985 23.1251 94.7665C22.8393 94.9344 22.5894 95.1573 22.3897 95.4223C22.19 95.6874 22.0444 95.9894 21.9613 96.311C21.8781 96.6326 21.8592 96.9675 21.9054 97.2965C21.9516 97.6255 22.0621 97.9421 22.2306 98.2281C22.3991 98.5142 22.6222 98.764 22.8872 98.9634C23.1521 99.1627 23.4537 99.3077 23.7746 99.3899L23.7735 99.3896Z" fill="#A55EEA"/>
<path d="M23.655 78.2143C23.0918 79.4897 19.1598 82.1633 19.1598 82.1633C19.1598 82.1633 18.4908 77.4454 19.0525 76.1714C19.1862 75.8683 19.3782 75.5945 19.6174 75.3658C19.8566 75.1371 20.1384 74.9579 20.4466 74.8384C20.7549 74.7189 21.0836 74.6615 21.414 74.6695C21.7444 74.6774 22.07 74.7505 22.3722 74.8847C22.6744 75.0188 22.9473 75.2114 23.1753 75.4513C23.4033 75.6913 23.582 75.9739 23.7011 76.2831C23.8202 76.5923 23.8775 76.922 23.8695 77.2534C23.8616 77.5848 23.7887 77.9113 23.655 78.2145V78.2143Z" fill="#A55EEA"/>
<path d="M30.448 88.054C29.5312 89.1015 24.9818 90.4735 24.9818 90.4735C24.9818 90.4735 25.7507 85.7708 26.6675 84.7247C27.1077 84.2218 27.729 83.915 28.3948 83.8716C29.0606 83.8283 29.7163 84.052 30.2176 84.4936C30.7189 84.9351 31.0248 85.5584 31.068 86.2262C31.1112 86.8939 30.8882 87.5516 30.448 88.0545V88.054Z" fill="#A55EEA"/>
<path d="M35.7437 98.527C35.0113 99.715 30.763 101.839 30.763 101.839C30.763 101.839 30.7276 97.0743 31.4549 95.8863C31.6279 95.6036 31.8547 95.3578 32.1223 95.1629C32.39 94.9681 32.6933 94.828 33.0149 94.7508C33.3365 94.6735 33.6702 94.6605 33.9968 94.7126C34.3234 94.7647 34.6366 94.8808 34.9185 95.0543C35.2004 95.2277 35.4454 95.4552 35.6397 95.7237C35.8339 95.9921 35.9736 96.2964 36.0506 96.619C36.1276 96.9416 36.1405 97.2762 36.0886 97.6038C36.0367 97.9314 35.921 98.2456 35.748 98.5283L35.7437 98.527Z" fill="#A55EEA"/>
<path d="M52.9758 115C82.2335 115 105.952 113.442 105.952 111.521C105.952 109.599 82.2335 108.042 52.9758 108.042C23.7181 108.042 0 109.599 0 111.521C0 113.442 23.7181 115 52.9758 115Z" fill="#E6E6E6"/>
<path opacity="0.1" d="M93.6201 31.6464C93.6201 31.6464 98.0805 30.2133 98.5369 31.6464H93.6201Z" fill="black"/>
<path d="M54.4655 37.0287C54.4655 37.0287 55.4737 31.7237 58.7194 31.6967L61.0902 36.5921L59.5092 37.6858C59.5092 37.6858 56.0735 37.7953 54.4655 37.0287Z" fill="#D0CDE1"/>
<path opacity="0.502" d="M61.0901 36.5907L59.509 37.6858C59.509 37.6858 57.0985 37.7626 55.363 37.3359C55.0544 37.2636 54.7537 37.1607 54.4654 37.0287C54.4675 36.9996 54.4737 36.9708 54.4838 36.9434C54.4834 36.9368 54.4834 36.9301 54.4838 36.9234C54.6329 36.2576 54.8382 35.6057 55.0977 34.9749C55.197 34.7373 55.3105 34.4914 55.4324 34.2467C55.9074 33.3294 56.5753 32.4304 57.4885 31.9853C57.8265 31.8186 58.1944 31.7219 58.5704 31.7009H58.7151L58.7661 31.809L59.5689 33.463L61.0901 36.5907Z" fill="black"/>
<path d="M88.0282 58.634C88.0282 58.634 91.4313 58.306 91.7361 58.5516C92.0408 58.7972 93.9722 60.0563 95.1164 59.2626C96.2606 58.469 95.4978 55.7071 95.4978 55.5974C95.4978 55.4878 95.39 51.5782 95.39 51.5782L93.3439 48.8162L90.7817 43.9806L85.5467 43.4615L85.6886 51.1417L85.6616 55.08L88.0282 58.634Z" fill="#D0CDE1"/>
<path opacity="0.503" d="M88.0282 58.634C88.0282 58.634 91.4313 58.306 91.7361 58.5516C92.0408 58.7972 93.9722 60.0563 95.1164 59.2626C96.2606 58.469 95.4978 55.7071 95.4978 55.5974C95.4978 55.4878 95.39 51.5782 95.39 51.5782L93.3439 48.8162L90.7817 43.9806L85.5467 43.4615L85.6886 51.1417L85.6616 55.08L88.0282 58.634Z" fill="black"/>
<path d="M58.036 31.5603C58.036 31.5603 57.7652 34.8969 55.6921 34.9509C55.6921 34.9509 55.1051 34.5954 54.3154 34.0036C52.4948 32.6368 49.6049 30.0099 50.4033 27.5665C51.549 24.0664 57.1102 30.5205 57.1102 30.5205L57.5356 31.0012L58.036 31.5603Z" fill="#FBBEBE"/>
<path opacity="0.1" d="M58.0359 31.5601C58.0359 31.5601 57.765 34.8968 55.692 34.9507C55.692 34.9507 55.105 34.5952 54.3152 34.0035L54.138 33.7759C54.4893 33.9599 54.8765 34.0642 55.2724 34.0816C55.7928 34.0929 56.3784 33.8995 56.7541 33.1458C56.9697 32.7163 57.1591 32.2741 57.3214 31.8217C57.4207 31.5567 57.4911 31.2817 57.5311 31.0015L58.0359 31.5601Z" fill="black"/>
<path d="M57.1368 37.6033L56.6703 37.0017L55.0964 34.975L54.2966 33.9396C54.6476 34.1245 55.035 34.2294 55.4311 34.2468C55.9514 34.2582 56.5371 34.0647 56.9143 33.3095C57.1299 32.8801 57.3194 32.4379 57.4815 31.9854C57.7409 31.2472 57.7353 30.8669 57.645 30.7396C57.5548 30.6122 58.2235 31.2359 58.5454 31.5417L58.5567 31.5531C58.6489 31.6384 58.7084 31.6954 58.7084 31.6954L58.7637 31.8063L59.5535 33.3907L59.5619 33.4575C59.6339 33.9609 59.9005 37.151 57.1368 37.6033Z" fill="#E6E6E6"/>
<path d="M73.4688 107.996C73.4688 107.996 71.1791 109.501 70.0343 109.276C68.8895 109.051 67.7159 109.66 67.7159 109.66C66.9271 110.525 65.9322 111.174 64.8247 111.547C62.9714 112.176 60.3824 111.93 58.9104 111.436C58.2128 111.205 58.1575 110.903 58.4922 110.533C58.8651 110.12 59.7201 109.62 60.7099 109.03C62.5901 107.909 64.6078 105.693 64.6078 105.693C64.6078 105.693 64.6347 105.147 64.9623 104.901C65.1629 104.729 65.3471 104.539 65.5124 104.332C65.8045 103.985 66.0796 103.621 66.0796 103.621L72.8147 103.84C72.8147 103.84 72.9297 104.328 73.0189 104.826C73.094 105.234 73.1527 105.649 73.1139 105.81C73.0317 106.164 73.3052 106.493 73.3052 106.493L73.4258 107.609L73.4688 107.996Z" fill="#2F2E41"/>
<path d="M87.5672 109.882C87.4864 110.209 87.3888 110.796 87.3442 111.072C87.3294 111.166 87.3215 111.223 87.3215 111.223C87.3215 111.223 86.7755 112.426 83.7498 112.864C80.724 113.302 80.7239 111.852 80.7239 111.852C80.7239 111.852 80.7352 111.695 80.7551 111.46C80.8076 110.82 80.9167 109.596 80.9961 109.336C81.1052 108.98 80.9152 107.421 80.9152 107.421L80.8826 105.791L80.8599 104.654L85.8775 104.133C85.9094 104.51 85.9634 104.884 86.0391 105.254C86.0705 105.457 86.1455 105.651 86.2589 105.823C86.5311 106.126 86.6955 107.464 86.6955 107.464C86.6955 107.464 87.6735 109.444 87.5672 109.882Z" fill="#2F2E41"/>
<path opacity="0.1" d="M72.8201 103.839C72.8201 103.839 72.9349 104.327 73.0242 104.824C72.2969 104.959 69.1164 105.511 68.3209 105.124C67.422 104.686 65.485 104.44 65.485 104.44L65.5176 104.329C65.8097 103.982 66.0848 103.618 66.0848 103.618L72.8201 103.839Z" fill="black"/>
<path opacity="0.1" d="M86.036 105.26C84.7599 105.043 81.9778 105.567 80.8804 105.791L80.8577 104.654L85.8744 104.133C85.9061 104.511 85.96 104.888 86.036 105.26Z" fill="black"/>
<path d="M88.8732 63.8025L88.7641 67.6582C88.7641 67.6582 88.906 73.5379 88.4919 74.468C88.0778 75.3981 88.0821 79.1443 88.0821 79.1443C88.0821 79.1443 88.3558 80.9221 88.0552 81.3033C87.7546 81.6845 87.973 83.1095 88.197 83.8477C88.4211 84.5859 88.2226 86.4192 88.2226 86.4192L88.1688 96.7561C88.1688 96.7561 87.8697 99.4356 87.4868 99.8195C87.3768 99.9331 87.2988 100.074 87.2607 100.227C87.2226 100.381 87.2258 100.542 87.2699 100.694C87.2699 100.694 86.9428 102.225 87.0246 102.499C87.1063 102.773 87.2699 103.4 86.6432 103.7C86.0165 104.001 86.1781 104.959 86.1781 104.959C84.6793 104.604 80.4269 105.562 80.4269 105.562C80.4269 105.562 79.5762 103.811 79.2259 102.635C78.8756 101.459 79.7449 100.721 80.3163 100.644C80.8877 100.567 79.9079 99.5488 79.9079 99.5488C79.9079 99.5488 80.017 99.4066 79.7444 98.4281C79.4717 97.4497 79.7982 94.9265 79.8862 94.2709C79.9742 93.6154 80.3768 90.4423 80.3768 90.4423C80.3768 90.4423 80.1599 86.4231 80.323 86.2581C80.4861 86.0932 81.0319 84.5074 80.7597 83.9826C80.4875 83.4578 80.0508 80.0443 80.0508 79.858C80.0508 79.6718 79.6963 75.2357 79.6963 75.2357C79.6963 75.2357 79.3703 72.1451 79.451 71.4896C79.5317 70.834 79.2326 68.4005 79.2326 68.4005C79.2326 66.3751 78.0615 64.1878 78.0615 64.1878L78.0317 64.2661L75.4979 70.9506C75.4979 70.9506 75.0895 72.9731 74.7337 74.1222C74.5104 74.9023 74.3329 75.6949 74.2021 76.4959L74.178 76.6382C74.168 76.6993 74.1595 76.7519 74.1539 76.7918L74.1369 76.9027C74.1369 76.9027 74.3269 78.352 74.0278 78.8171C73.7287 79.2822 73.3885 80.676 73.3885 81.0642C73.3885 81.4524 73.4141 82.926 73.4141 82.926C73.4141 82.926 73.5247 85.8516 73.224 86.1801C72.9234 86.5087 73.0822 86.7817 73.0822 86.7817C73.0822 86.7817 73.5742 88.9962 73.3559 89.5705C73.1377 90.1448 73.3021 91.4834 73.3021 91.4834C73.3021 91.4834 72.8696 95.7132 72.8214 95.9349C72.7733 96.1567 72.467 97.8493 72.793 97.9858C73.1191 98.1222 73.7472 98.9429 73.7472 98.9429C73.7472 98.9429 73.8891 102.526 73.3941 102.799C72.8992 103.072 73.1744 104.467 73.1744 104.467C73.1744 104.467 69.2227 105.234 68.3223 104.795C67.4219 104.357 65.4863 104.111 65.4863 104.111L65.7572 103.212C65.7424 103.244 65.5616 103.535 65.4325 102.416C65.2907 101.24 66.4421 101.814 66.4421 101.814C66.4421 101.814 67.341 102.033 65.8948 100.611C64.4486 99.1887 65.1588 97.7394 65.2406 97.7394C65.3224 97.7394 65.5128 95.6344 65.5128 95.6344C65.5128 95.6344 65.7581 94.3758 65.5666 93.3915C65.3751 92.4073 65.2135 89.3438 65.2135 89.3438C65.2135 89.3438 65.3554 87.0199 65.1044 86.1722C64.8534 85.3246 65.2679 83.7929 65.3497 83.4358C65.4315 83.0788 65.1044 79.8269 65.1044 79.8269C65.1044 79.8269 65.3781 78.2965 65.2135 77.1758C65.0489 76.0551 65.378 71.9249 65.378 71.9249L65.8686 67.166C65.8686 67.166 66.2217 65.6896 66.1677 65.0881C66.1138 64.4867 66.5762 62.3859 66.5762 62.3859C66.5762 62.3859 66.5223 61.6193 66.7946 61.0735C67.0668 60.5277 67.1774 58.7225 67.1774 58.7225L69.7949 52.7049L71.071 47.3999L88.3841 47.2358C88.3841 47.2358 88.4479 47.6951 88.5513 48.5315C88.6548 49.3678 88.8051 50.6065 88.9767 52.134C89.127 53.5221 89.2915 55.1548 89.4525 56.9697C89.9637 62.7627 88.8732 63.8025 88.8732 63.8025Z" fill="#2F2E41"/>
<path d="M87.2653 15.9168L83.2284 20.2391C83.2284 20.2391 78.05 18.1598 78.5945 17.4487C78.8057 17.1728 78.7717 16.3108 78.6498 15.346C78.4584 13.8327 78.05 12.0876 78.05 12.0876C78.05 12.0876 87.1007 10.6112 86.3365 12.1416C86.053 12.702 86.1068 13.3548 86.2798 13.9579C86.5009 14.6597 86.8337 15.321 87.2653 15.9162V15.9168Z" fill="#FBBEBE"/>
<path opacity="0.1" d="M86.3366 12.1422C86.0531 12.7026 85.9254 12.7566 86.0998 13.3597C84.9159 14.6397 83.4057 16.0265 81.5397 16.0265C80.5368 16.028 79.5475 15.7952 78.6499 15.3466C78.4586 13.8333 78.0502 12.0882 78.0502 12.0882C78.0502 12.0882 87.1009 10.6118 86.3366 12.1422Z" fill="black"/>
<path d="M88.0281 9.35332C88.0281 11.0798 87.3444 12.7355 86.1273 13.9563C84.9102 15.1771 83.2595 15.8629 81.5383 15.8629C79.8171 15.8629 78.1664 15.1771 76.9493 13.9563C75.7322 12.7355 75.0485 11.0798 75.0485 9.35332C75.0485 9.32201 75.0485 9.29069 75.0485 9.25952C75.0609 7.53343 75.7564 5.88298 76.982 4.67125C78.2076 3.45952 79.8629 2.78576 81.5837 2.7982C83.3046 2.81064 84.95 3.50826 86.1581 4.73758C87.3661 5.96691 88.0379 7.62724 88.0255 9.35332H88.0281Z" fill="#FBBEBE"/>
<path opacity="0.1" d="M88.9682 52.2923C88.109 52.2994 85.2462 52.3236 82.0472 52.3747H82.0089L80.9516 52.3926H80.9191C77.1261 52.4538 73.3883 51.7099 71.8882 51.8522C68.6978 52.1522 73.033 48.8982 73.033 48.8982C75.4101 49.477 77.8554 49.7249 80.3 49.6349L81.2173 49.5879C84.1166 49.423 87.0307 49.1499 88.5509 48.6919C88.6563 49.536 88.8038 50.7705 88.9682 52.2923Z" fill="black"/>
<path d="M88.9682 52.1287C88.109 52.1287 85.2462 52.16 82.0472 52.2098H82.0089L80.951 52.2283H80.9185C77.1255 52.2894 73.3877 51.5456 71.8876 51.6863C68.6972 51.9864 73.0324 48.7335 73.0324 48.7335C75.4097 49.3115 77.8549 49.5594 80.2994 49.4703L81.2167 49.4219C84.116 49.2579 87.0301 48.9839 88.5503 48.526C88.6563 49.3709 88.8038 50.6011 88.9682 52.1287Z" fill="#7C5C5C"/>
<path opacity="0.1" d="M79.7942 17.7218L74.7774 20.0742L70.9066 50.1006C70.9066 50.1006 73.1962 49.0624 74.5046 49.7181C75.813 50.3739 79.8474 49.7736 79.8474 49.7736C79.8474 49.7736 82.7924 49.6087 83.2291 49.9376C83.6658 50.2666 88.7897 48.5709 88.7897 48.5709C88.7897 48.5709 89.717 46.4915 89.0081 46.1645C88.2992 45.8374 89.2265 42.6089 89.2265 42.6089L88.7898 20.9495L87.9178 18.1607L85.5738 16.7375L83.1717 18.6519L82.0373 18.816L79.7942 17.7218Z" fill="black"/>
<path d="M79.7942 17.3933L74.7774 19.7456L70.9066 49.7748C70.9066 49.7748 73.1962 48.7352 74.5046 49.3923C75.813 50.0493 79.8474 49.4462 79.8474 49.4462C79.8474 49.4462 82.7924 49.2822 83.2291 49.6103C83.6658 49.9384 88.7897 48.2435 88.7897 48.2435C88.7897 48.2435 89.717 46.1657 89.0081 45.8371C88.2992 45.5086 89.2265 42.2815 89.2265 42.2815L88.7898 20.6193L87.9178 17.8305L85.5738 16.4075L83.1717 18.3232L82.0373 18.4853L79.7942 17.3933Z" fill="#E6E6E6"/>
<path opacity="0.1" d="M79.712 18.7884C79.712 18.7884 81.1568 20.5107 81.1299 20.8662C81.103 21.2218 81.049 22.0694 81.049 22.0694L79.9573 24.2853C79.9573 24.2853 79.3575 27.0474 79.3575 27.622C79.3575 28.1966 78.4033 33.1688 78.4033 33.1688L77.2585 40.8262L75.8136 50.8627L77.2855 53.4057L79.031 51.9293L81.3479 34.0431L81.8385 30.5159C81.8385 30.5159 82.3561 24.1713 82.3561 23.5155C82.3561 22.8598 82.0569 21.1362 82.0569 21.1362C82.0569 21.1362 82.4114 19.4948 83.8833 19.1123C85.3552 18.7298 83.7741 19.0298 83.7741 19.0298L82.9234 18.3458L82.1874 18.6473C82.1874 18.6473 80.1486 18.0232 79.712 18.7884Z" fill="black"/>
<path d="M79.5488 18.6276C79.5488 18.6276 80.9937 20.3499 80.9668 20.7055C80.9399 21.061 80.8846 21.9087 80.8846 21.9087L79.7942 24.1246C79.7942 24.1246 79.2015 26.8835 79.2015 27.4569C79.2015 28.0303 78.2473 33.0037 78.2473 33.0037L77.0945 40.6724L75.6566 50.7022L77.1298 53.2467L78.8669 51.7661L81.1862 33.8842L81.6769 30.3569C81.6769 30.3569 82.1944 24.0123 82.1944 23.3552C82.1944 22.6982 81.8953 20.9758 81.8953 20.9758C81.8953 20.9758 82.2497 19.3354 83.7217 18.952C85.1936 18.5686 83.6125 18.8709 83.6125 18.8709L82.7618 18.1868L82.0373 18.4851C82.0373 18.4851 79.9855 17.8587 79.5488 18.6276Z" fill="#2F2E41"/>
<path opacity="0.1" d="M78.5946 15.7533C78.5946 15.7533 78.3762 15.9173 78.3224 17.0106C78.2686 18.1039 77.5046 20.5662 77.5046 20.5662C77.5046 20.5662 80.3405 18.5963 81.7585 18.8154L78.5946 15.7533Z" fill="black"/>
<path d="M78.5946 15.4247C78.5946 15.4247 78.3762 15.5888 78.3224 16.6834C78.2686 17.778 77.5046 20.239 77.5046 20.239C77.5046 20.239 80.3405 18.2705 81.7585 18.4897L78.5946 15.4247Z" fill="#E6E6E6"/>
<path opacity="0.1" d="M86.338 14.8773L81.8658 18.8155C81.8658 18.8155 85.6291 21.0584 86.1197 21.6059C86.6103 22.1534 87.1008 16.2448 87.1008 16.2448L86.338 14.8773Z" fill="black"/>
<path d="M86.5011 14.5501L82.0374 18.4855C82.0374 18.4855 85.799 20.7269 86.2913 21.2742C86.7836 21.8216 87.2739 15.9137 87.2739 15.9137L86.5011 14.5501Z" fill="#E6E6E6"/>
<path opacity="0.1" d="M78.7577 15.7534C78.7577 15.7534 78.2671 15.5073 77.8035 16.2185C77.3399 16.9298 76.4678 17.2568 76.4678 17.2568C76.4678 17.2568 71.505 18.0505 71.315 18.706L68.9981 18.8483C68.9981 18.8483 68.1804 18.9564 68.0978 20.6802C68.0151 22.404 67.5745 22.5633 67.5745 22.5633C67.5745 22.5633 66.6203 24.2586 66.7011 25.1333C66.7818 26.0079 65.9651 26.4456 65.9651 26.4456L69.3682 35.3338C69.3682 35.3338 69.4773 38.999 68.8493 40.3387C68.2213 41.6783 67.0503 47.6134 67.0503 47.6134C67.0503 47.6134 67.5423 47.504 67.514 47.831C67.4858 48.158 66.9143 51.7423 66.9143 51.7423C66.9143 51.7423 66.7507 53.1645 66.4789 53.6566C66.2072 54.1488 66.1783 56.7202 66.1783 56.7202L65.7416 58.5792C65.7416 58.5792 66.7781 60.9046 68.3591 60.5703C69.9402 60.2361 72.8214 54.0423 72.8214 54.0423L74.6478 47.3421L76.0658 40.7245L76.4742 36.2401L77.1293 26.3128L78.0835 19.7491C78.0835 19.7491 79.1406 16.2191 78.7577 15.7534Z" fill="black"/>
<path d="M78.5946 15.4249C78.5946 15.4249 78.104 15.1788 77.6404 15.89C77.1768 16.6012 76.3047 16.9296 76.3047 16.9296C76.3047 16.9296 71.3419 17.7218 71.1519 18.3789L68.8336 18.5211C68.8336 18.5211 68.0158 18.6306 67.9346 20.3531C67.8535 22.0755 67.4158 22.2403 67.4158 22.2403C67.4158 22.2403 66.4615 23.9356 66.5438 24.8103C66.626 25.6849 65.8078 26.1226 65.8078 26.1226L69.2109 35.0108C69.2109 35.0108 69.32 38.676 68.6934 40.0157C68.0667 41.3553 66.8943 47.2904 66.8943 47.2904C66.8943 47.2904 67.385 47.181 67.3581 47.5095C67.3312 47.838 66.7583 51.4193 66.7583 51.4193C66.7583 51.4193 66.5948 52.8415 66.3216 53.3336C66.0485 53.8258 66.0225 56.3972 66.0225 56.3972L65.5892 58.2502C65.5892 58.2502 66.6257 60.5756 68.2067 60.2414C69.7878 59.9072 72.6506 53.7062 72.6506 53.7062L74.4783 47.006L75.8963 40.3869L76.306 35.9025L76.9602 25.9751L77.9144 19.4115C77.9144 19.4115 78.976 15.8899 78.5946 15.4249Z" fill="#2F2E41"/>
<path opacity="0.1" d="M61.0902 36.5907L59.5092 37.6864C59.5092 37.6864 57.0986 37.7632 55.3631 37.3365L54.484 36.944L54.3067 36.8672L54.4883 36.924C55.4 37.1957 56.1132 37.1899 56.6704 37.0023C58.9079 36.2471 58.6556 32.5408 58.5747 31.7016C58.5662 31.6176 58.5599 31.5593 58.5563 31.5423C58.5559 31.539 58.5559 31.5357 58.5563 31.5323L58.5691 31.5537C58.5995 31.6041 58.6344 31.6517 58.6731 31.6959C58.7044 31.7314 58.7369 31.7684 58.7725 31.8026L59.5623 33.3869L59.5707 33.4538L61.0902 36.5907Z" fill="black"/>
<path d="M66.5705 25.8982L65.8077 26.1173L65.6985 27.6818C65.6985 27.6818 64.7981 27.5395 64.5528 28.6119C64.3075 29.6843 63.8721 30.1765 63.8721 30.1765C63.8721 30.1765 62.372 31.4351 62.2898 32.5004L61.3638 33.0693C61.3638 33.0693 59.2079 32.5658 58.7194 31.6973C58.7194 31.6973 59.7007 38.7531 54.4655 37.0293C54.4655 37.0293 60.3273 39.6008 60.5996 39.9563C60.8718 40.3118 62.6726 41.3501 64.3075 40.4754C65.9424 39.6008 66.2983 38.2553 66.2983 38.2553C66.2983 38.2553 67.8793 36.0395 67.9347 35.7109C67.99 35.3822 69.2108 34.9998 69.2108 34.9998L71.5562 29.3103L66.5705 25.8982Z" fill="#2F2E41"/>
<path opacity="0.1" d="M85.7113 18.1598L86.5011 14.5508C86.5011 14.5508 86.8555 15.727 87.2101 16.0001L88.3828 16.9017C88.3828 16.9017 89.5554 17.4493 89.9638 17.4493C90.3722 17.4493 92.5813 18.0183 92.8535 18.324C93.1258 18.6297 94.2177 18.4065 94.2177 18.4065C94.2177 18.4065 95.1166 18.7065 95.9078 18.8986C96.6991 19.0907 97.0805 20.4033 96.916 20.9225C96.8501 21.1809 96.8507 21.452 96.9177 21.7102C96.9846 21.9684 97.1158 22.2053 97.2989 22.3989C97.6249 22.7269 97.7895 23.7941 97.7895 23.7941C98.1904 23.9251 98.5233 24.2099 98.7155 24.5863C98.9892 25.1879 98.907 26.5007 98.907 26.5007L94.8446 32.2437C94.8446 32.2437 94.8985 34.4597 94.7355 34.946C94.5726 35.4323 95.3027 43.8066 95.3027 43.8066L96.1535 58.1912C96.1535 58.1912 95.0361 59.1483 94.7908 59.2579C94.5455 59.3675 94.2988 54.1704 94.2988 53.98C94.2988 53.7896 88.0018 44.5178 88.0018 44.5178C88.0018 44.5178 87.1511 43.1497 87.1511 42.8495C87.1511 42.5493 86.3598 39.7859 86.3598 39.7859L85.1597 34.4531L85.7113 18.1598Z" fill="black"/>
<path d="M99.2442 26.1869C99.2442 26.3747 99.2342 26.5001 99.2342 26.5001L95.1753 32.2388C95.1753 32.2388 95.2321 34.4532 95.0675 34.941C94.9725 35.2254 95.181 38.1696 95.3738 40.5859C95.5156 42.3308 95.6404 43.8017 95.6404 43.8017L95.9991 49.903L96.4841 58.1862C96.4841 58.1862 95.3668 59.1433 95.1215 59.253C94.8762 59.3626 94.6308 54.1655 94.6308 53.9737C94.6308 53.7819 88.3323 44.5129 88.3323 44.5129C88.3323 44.5129 87.4816 43.1447 87.4816 42.8445C87.4816 42.5443 86.6918 39.7809 86.6918 39.7809L85.4923 34.4476L86.0367 18.1501L86.5005 14.5411C86.5005 14.5411 87.1825 15.7173 87.5369 15.989C87.8914 16.2608 88.7082 16.8922 88.7082 16.8922C88.7082 16.8922 89.8808 17.4398 90.2906 17.4398C90.7004 17.4398 92.9081 18.0087 93.1803 18.3144C93.4525 18.6202 94.5445 18.3969 94.5445 18.3969C94.5445 18.3969 95.4434 18.697 96.2332 18.889C97.0229 19.0811 97.4058 20.3938 97.2427 20.9114C97.1764 21.17 97.1766 21.4412 97.2433 21.6996C97.31 21.9581 97.441 22.1953 97.624 22.3891C97.9511 22.7172 98.1147 23.7829 98.1147 23.7829C98.5163 23.9148 98.8496 24.2006 99.042 24.5779C99.2328 25.0022 99.2512 25.7607 99.2442 26.1869Z" fill="#2F2E41"/>
<path opacity="0.1" d="M65.9168 99.053C66.0586 99.053 71.7786 99.2721 71.6693 100.202C71.56 101.132 65.9168 99.053 65.9168 99.053Z" fill="black"/>
<path opacity="0.1" d="M67.1987 100.612C67.1987 100.612 71.0428 101.24 70.0346 101.815C69.0264 102.389 67.1987 100.612 67.1987 100.612Z" fill="black"/>
<path opacity="0.1" d="M81.4844 98.4514C81.4844 98.4514 87.8651 98.999 86.9111 99.7087C85.9572 100.418 83.6939 100.529 83.5846 100.562C83.4753 100.595 81.4844 98.4514 81.4844 98.4514Z" fill="black"/>
<path opacity="0.1" d="M80.7215 101.269C80.7215 101.269 84.2663 101.87 84.3741 102.549C84.4819 103.227 80.7215 101.269 80.7215 101.269Z" fill="black"/>
<path opacity="0.1" d="M82.6839 84.8049C82.6839 84.8049 85.9281 85.5701 86.1196 86.0849L82.6839 84.8049Z" fill="black"/>
<path opacity="0.1" d="M70.1691 87.1573C70.1691 87.1573 68.479 87.6494 70.1153 88.6336C71.7517 89.6179 70.1691 87.1573 70.1691 87.1573Z" fill="black"/>
<path opacity="0.1" d="M77.6673 60.8756C77.8587 60.8756 80.8307 59.8913 81.8659 60.3295C82.901 60.7677 84.1842 60.7662 84.1842 60.7662L77.6673 60.8756Z" fill="black"/>
<path opacity="0.1" d="M78.0502 63.9974L78.0204 64.2676L75.4866 70.9521C75.4866 70.9521 75.0782 72.9745 74.7224 74.1237C74.4991 74.9038 74.3216 75.6964 74.1908 76.4974L76.4415 62.5012L78.0502 63.9974Z" fill="black"/>
<path d="M82.009 52.2098L80.9512 52.2283H80.9186L80.2989 49.4719C80.6037 49.457 80.9085 49.4406 81.2163 49.4221L82.009 52.2098Z" fill="#2F2E41"/>
<path d="M94.8713 48.8725L94.1921 49.433L91.9238 51.3034C91.9238 51.3034 85.7885 54.5859 84.0983 51.4683C82.6081 48.7219 89.5645 46.7607 91.239 46.3325C91.4673 46.2742 91.5959 46.2457 91.5959 46.2457L94.8713 48.8725Z" fill="#FBBEBE"/>
<path opacity="0.1" d="M68.6705 21.9884C68.6705 21.9884 69.87 22.5345 70.1424 23.3008C70.4148 24.067 68.6705 21.9884 68.6705 21.9884Z" fill="black"/>
<path opacity="0.1" d="M64.9626 30.192C64.9626 30.192 63.2171 32.3253 63.9261 33.1459C64.6352 33.9666 64.9626 30.192 64.9626 30.192Z" fill="black"/>
<path opacity="0.1" d="M96.1533 23.1916C96.1533 23.1916 94.517 23.3557 94.4631 24.7775L96.1533 23.1916Z" fill="black"/>
<path opacity="0.1" d="M80.9937 45.6163C81.1573 45.4522 84.92 39.8732 85.792 40.3654L80.9937 45.6163Z" fill="black"/>
<path opacity="0.1" d="M88.0282 9.35316C88.0295 10.425 87.766 11.4805 87.2611 12.4253L87.2129 12.4168C86.8017 12.33 86.5876 11.8478 86.2728 11.5491C86.0799 11.3646 85.8341 11.2454 85.5701 11.2082C85.3061 11.1709 85.0372 11.2176 84.8009 11.3415C84.5623 11.485 84.3682 11.6923 84.2404 11.9403C84.1127 12.1883 84.0564 12.467 84.0778 12.7453C83.8708 11.8691 83.9359 10.9377 83.7331 10.06C83.5303 9.1824 82.9193 8.29508 82.0841 8.27942C81.724 8.27942 81.3028 8.41363 81.0434 8.13715C80.8859 7.9731 80.8534 7.71048 80.7356 7.5184C80.1387 6.54905 78.3251 7.03909 77.5793 7.5354C76.8618 8.01262 75.9736 8.82688 75.0518 9.25354C75.0642 7.52745 75.7597 5.877 76.9853 4.66527C77.5921 4.06528 78.3108 3.59106 79.1004 3.26968C79.89 2.9483 80.7349 2.78606 81.587 2.79222C82.4391 2.79838 83.2816 2.97282 84.0665 3.30558C84.8514 3.63834 85.5632 4.1229 86.1614 4.7316C86.7595 5.3403 87.2323 6.06121 87.5527 6.85319C87.8731 7.64516 88.0349 8.49267 88.0287 9.34734L88.0282 9.35316Z" fill="black"/>
<path d="M80.7356 7.35929C80.8545 7.55704 80.8859 7.81578 81.0434 7.97803C81.3028 8.24826 81.724 8.11031 82.0841 8.12031C82.9193 8.13522 83.5305 9.02344 83.7331 9.90093C83.9358 10.7784 83.875 11.7085 84.0776 12.5853C84.0564 12.3071 84.1129 12.0286 84.2409 11.7809C84.3689 11.5333 84.5633 11.3264 84.8021 11.1835C85.038 11.0597 85.3066 11.013 85.5703 11.05C85.834 11.087 86.0795 11.2058 86.2726 11.3897C86.5873 11.6898 86.8014 12.1705 87.2127 12.2573C87.6239 12.3441 88.0209 11.9486 88.1684 11.5135C88.3158 11.0783 88.3102 10.6018 88.4037 10.151C88.5894 9.29769 89.1438 8.60006 89.4516 7.78864C89.8168 6.80143 89.8067 5.7139 89.4232 4.73369C89.2191 4.22023 88.9141 3.75808 88.7143 3.24462C88.3996 2.46526 86.6541 1.41568 86.2726 0.673159C85.6303 -0.569847 86.0443 0.205186 84.8021 0.673159C84.2095 0.896855 83.4323 0.101391 82.8312 0.299138C82.0244 0.55803 81.1638 0.363116 80.3285 0.246495C79.4932 0.129875 78.5731 0.118541 77.9024 0.673159C77.131 1.30607 76.9198 2.49643 76.2009 3.19198C75.8961 3.48353 75.517 3.6692 75.1955 3.94002C74.8741 4.21084 74.5971 4.61111 74.6283 5.05074C74.6765 5.61968 75.2296 6.13165 75.0253 6.65644C74.9515 6.80806 74.8489 6.94381 74.7233 7.05611C74.1152 7.69429 73.6633 8.4655 73.4032 9.30888C74.8622 9.76537 76.4419 8.15252 77.5833 7.39031C78.3224 6.88133 80.1387 6.39635 80.7356 7.35929Z" fill="#2F2E41"/>
<path opacity="0.1" d="M94.8711 48.8725L94.1919 49.433C93.5935 48.4374 91.1363 46.4363 91.1363 46.4363L91.2426 46.3339C91.4708 46.2756 91.5994 46.2471 91.5994 46.2471L94.8711 48.8725Z" fill="black"/>
<path d="M95.5262 47.8592C95.5262 47.8592 95.2823 48.468 95.0299 48.9971C94.7774 49.5262 94.5039 50.0012 94.4896 49.613C94.4627 48.8464 91.3007 46.275 91.3007 46.275L91.7261 45.8574L92.2237 45.3738L95.5262 47.8592Z" fill="#E6E6E6"/>
<path opacity="0.1" d="M95.6354 43.8113L95.9942 49.9127C95.1435 48.5914 92.8223 45.2051 91.3257 45.3146L94.9535 41.1318C95.1042 40.9627 95.243 40.7833 95.3689 40.5949C95.5077 42.3408 95.6354 43.8113 95.6354 43.8113Z" fill="black"/>
<path opacity="0.1" d="M95.5262 47.8592C95.5262 47.8592 95.2823 48.468 95.0299 48.9971C94.0798 47.6901 92.7725 46.1455 91.7292 45.8568L92.2268 45.3732L95.5262 47.8592Z" fill="black"/>
<path d="M98.2528 25.7389L99.2341 26.5041C99.2341 26.5041 100.87 26.5326 101.033 27.8994C101.197 29.2662 102.696 29.8906 102.696 29.8906C102.696 29.8906 103.814 31.0113 103.814 31.531C103.814 32.0507 104.664 32.9818 104.664 33.0627C104.664 33.1437 105.482 34.8135 105.373 35.1136C105.264 35.4136 106.245 36.7278 105.941 37.2199C105.694 37.6613 105.475 38.1178 105.285 38.5867C105.285 38.5867 104.009 41.0485 103.35 41.5137C102.691 41.9788 99.6974 45.8886 99.6974 45.8886C99.6974 45.8886 96.4801 49.6078 96.4801 50.757C96.4801 50.757 93.343 45.5061 91.4904 45.6369L95.1161 41.4525C95.1161 41.4525 95.7443 40.7698 95.7712 40.3588C95.7981 39.9478 97.5152 38.0622 98.3334 37.9794C98.3334 37.9794 98.4752 36.8587 98.115 36.8311C97.7547 36.8035 97.4608 35.928 97.4608 35.928C97.4608 35.928 95.0617 33.0835 95.0346 31.2787C95.0076 29.4739 98.2528 25.7389 98.2528 25.7389Z" fill="#2F2E41"/>
<path opacity="0.1" d="M99.6978 28.333C99.6978 28.333 97.4064 30.0284 97.8988 30.5745C98.3912 31.1206 99.6978 28.333 99.6978 28.333Z" fill="black"/>
<path opacity="0.1" d="M73.4688 107.996C73.4688 107.996 71.1791 109.501 70.0343 109.276C68.8895 109.051 67.7159 109.66 67.7159 109.66C66.9271 110.525 65.9322 111.174 64.8247 111.547C62.9714 112.176 60.3824 111.93 58.9104 111.437C58.2128 111.205 58.1575 110.903 58.4922 110.533C60.093 110.853 63.6705 111.489 64.6347 111.027C65.8882 110.425 67.6875 109.112 67.6875 109.112C67.6875 109.112 70.0343 108.784 70.3603 108.784C70.5929 108.784 72.4036 108.035 73.4259 107.604L73.4688 107.996Z" fill="black"/>
<path opacity="0.1" d="M69.8021 28.0045C69.8021 28.0045 69.8021 34.2397 69.2704 34.8554C68.7387 35.4712 69.8021 28.0045 69.8021 28.0045Z" fill="black"/>
<path opacity="0.1" d="M94.3804 30.0142L95.1702 32.2422C95.1702 32.2422 95.485 30.0555 94.3804 30.0142Z" fill="black"/>
<g opacity="0.1">
<path opacity="0.1" d="M75.1023 6.11196C75.3023 5.5985 74.7791 5.09652 74.711 4.54742C74.6413 4.70259 74.6112 4.87265 74.6231 5.04239C74.6585 5.45623 74.9634 5.84456 75.0485 6.22709C75.0701 6.19053 75.0882 6.15191 75.1023 6.11181V6.11196Z" fill="black"/>
<path opacity="0.1" d="M84.1518 12.0014C83.9561 11.1381 84.0099 10.225 83.8143 9.36315C83.6186 8.50132 83.0017 7.5967 82.1666 7.58253C81.8065 7.58253 81.3853 7.71481 81.1244 7.44026C80.9684 7.27815 80.9359 7.01359 80.8181 6.82151C80.2212 5.85216 78.4076 6.34429 77.6603 6.84001C76.5443 7.58387 75.0131 9.13841 73.5837 8.78557C73.5143 8.952 73.4499 9.11977 73.398 9.29261C74.857 9.7491 76.4367 8.13625 77.5781 7.37404C78.3225 6.87774 80.1389 6.37845 80.7359 7.35555C80.8548 7.5533 80.8862 7.81204 81.0437 7.97429C81.3031 8.24452 81.7243 8.10657 82.0844 8.11656C82.9195 8.13148 83.5308 9.0197 83.7334 9.89719C83.936 10.7747 83.8752 11.7048 84.0779 12.5815C84.064 12.3855 84.0893 12.1887 84.1522 12.0026L84.1518 12.0014Z" fill="black"/>
<path opacity="0.1" d="M88.2507 10.9745C88.1089 11.4097 87.7132 11.808 87.2937 11.7184C86.8741 11.6288 86.6683 11.1495 86.355 10.8507C86.1619 10.6665 85.9161 10.5475 85.6521 10.5105C85.3881 10.4735 85.1192 10.5204 84.8831 10.6445C84.6558 10.7807 84.4688 10.9755 84.3417 11.2085C84.2145 11.4416 84.1518 11.7044 84.16 11.97C84.2689 11.6353 84.4978 11.353 84.8022 11.1778C85.0382 11.054 85.3068 11.0073 85.5704 11.0443C85.8341 11.0813 86.0797 11.2001 86.2727 11.384C86.5874 11.6841 86.8015 12.1649 87.2128 12.2517C87.624 12.3385 88.021 11.943 88.1685 11.5078C88.2466 11.2523 88.2969 10.9891 88.3188 10.7228C88.3011 10.808 88.2784 10.892 88.2507 10.9745Z" fill="black"/>
<path opacity="0.1" d="M89.5325 7.24923C89.2262 8.0599 88.6701 8.75963 88.4861 9.61295C88.4492 9.78505 88.4279 9.96147 88.4067 10.1377C88.5939 9.28442 89.1455 8.59036 89.4517 7.78252C89.588 7.41677 89.6731 7.03384 89.7045 6.64465C89.6626 6.85018 89.6052 7.05223 89.5329 7.24908L89.5325 7.24923Z" fill="black"/>
</g>
<path d="M52.4123 27.6407L52.4018 27.646C52.3739 27.6601 52.3627 27.6942 52.3767 27.7221L52.7866 28.5379C52.8006 28.5659 52.8346 28.5771 52.8625 28.563L52.873 28.5577C52.9008 28.5437 52.912 28.5096 52.898 28.4816L52.4881 27.6658C52.4741 27.6379 52.4401 27.6266 52.4123 27.6407Z" fill="#3A3768"/>
<path d="M51.2502 26.075L48.135 27.6496C47.9707 27.7326 47.9047 27.9335 47.9874 28.0982L51.4881 35.0661C51.5708 35.2309 51.7711 35.2971 51.9354 35.2141L55.0505 33.6395C55.2148 33.5565 55.2809 33.3556 55.1981 33.1909L51.6974 26.223C51.6147 26.0582 51.4144 25.992 51.2502 26.075Z" fill="#3A3768"/>
<path d="M50.8314 26.5283C50.8133 26.5364 50.7971 26.5482 50.7838 26.563C50.7706 26.5777 50.7605 26.5951 50.7544 26.614C50.7482 26.6329 50.7461 26.6529 50.7481 26.6727C50.7501 26.6925 50.7563 26.7116 50.7661 26.7288L50.781 26.7558C50.7908 26.7732 50.7968 26.7924 50.7988 26.8122C50.8007 26.8321 50.7985 26.8521 50.7922 26.871C50.7859 26.8899 50.7757 26.9073 50.7623 26.922C50.7489 26.9367 50.7326 26.9484 50.7144 26.9564L49.1419 27.7514C49.1247 27.7613 49.1057 27.7675 49.086 27.7695C49.0662 27.7715 49.0463 27.7694 49.0275 27.7632C49.0086 27.757 48.9913 27.747 48.9766 27.7337C48.9618 27.7204 48.95 27.7041 48.942 27.686L48.9271 27.6575C48.919 27.6393 48.9072 27.6231 48.8925 27.6098C48.8778 27.5965 48.8604 27.5864 48.8416 27.5802C48.8228 27.5741 48.8028 27.5719 48.7831 27.574C48.7634 27.576 48.7443 27.5821 48.7271 27.592L48.4208 27.7456C48.3873 27.7624 48.3574 27.7856 48.3328 27.814C48.3083 27.8425 48.2896 27.8755 48.2778 27.9112C48.2661 27.9469 48.2615 27.9846 48.2644 28.0221C48.2673 28.0596 48.2776 28.0961 48.2946 28.1296L51.6399 34.79C51.6566 34.8236 51.6798 34.8536 51.7081 34.8783C51.7365 34.9029 51.7694 34.9216 51.805 34.9334C51.8406 34.9452 51.8782 34.9497 51.9155 34.9469C51.9529 34.944 51.9894 34.9337 52.0227 34.9166L54.7665 33.5297C54.7998 33.5129 54.8296 33.4897 54.854 33.4614C54.8784 33.4331 54.897 33.4002 54.9088 33.3647C54.9205 33.3291 54.9251 33.2916 54.9224 33.2543C54.9196 33.217 54.9095 33.1805 54.8927 33.1471L51.5517 26.4858C51.5349 26.4524 51.5117 26.4227 51.4834 26.3984C51.4551 26.374 51.4223 26.3555 51.3869 26.3439C51.3515 26.3323 51.3141 26.3278 51.277 26.3306C51.2398 26.3335 51.2036 26.3437 51.1704 26.3606L50.8314 26.5283Z" fill="#A55EEA"/>
<path opacity="0.1" d="M33.2714 104.719H27.8493V105.58H33.2714V104.719Z" fill="black"/>
<path d="M45.3649 27.0584V44.0225C45.3653 44.2461 45.3217 44.4676 45.2365 44.6743C45.1514 44.881 45.0264 45.0688 44.8688 45.2269C44.7111 45.385 44.5239 45.5104 44.3179 45.5958C44.1118 45.6812 43.891 45.7249 43.668 45.7245H41.8455V25.3579H43.6679C43.8907 25.3575 44.1113 25.4012 44.3173 25.4865C44.5232 25.5717 44.7103 25.6969 44.8679 25.8548C45.0256 26.0128 45.1506 26.2003 45.2358 26.4068C45.3211 26.6132 45.3649 26.8345 45.3647 27.058L45.3649 27.0584Z" fill="#D0CDE1"/>
<path opacity="0.2" d="M43.9813 27.5321V43.6255C43.8781 43.6427 43.7737 43.6512 43.6691 43.651H43.4083V27.5066H43.6697C43.7741 27.5064 43.8783 27.5149 43.9813 27.5321Z" fill="black"/>
<path d="M37.3193 51.7102H30.7489V104.553H37.3193V51.7102Z" fill="#D0CDE1"/>
<path d="M26.134 103.724H41.1778C42.8295 103.724 44.4135 104.382 45.5814 105.554C46.7494 106.725 47.4055 108.314 47.4055 109.971V110.932H19.9063V109.971C19.9063 108.314 20.5624 106.725 21.7304 105.554C22.8983 104.382 24.4823 103.724 26.134 103.724Z" fill="#D0CDE1"/>
<path opacity="0.1" d="M37.3193 58.9851H30.7489V65.3238H37.3193V58.9851Z" fill="black"/>
<path opacity="0.1" d="M37.3193 58.5538H30.7489V64.8925H37.3193V58.5538Z" fill="black"/>
<path d="M38.0032 58.7687H30.1399V65.1074H38.0032V58.7687Z" fill="#D0CDE1"/>
<path d="M40.8586 47.729V50.3597C40.8586 50.6838 40.7949 51.0047 40.6713 51.3041C40.5476 51.6036 40.3664 51.8757 40.1379 52.1048C39.9094 52.334 39.6381 52.5158 39.3396 52.6398C39.041 52.7638 38.7211 52.8276 38.398 52.8276H29.6763C29.0237 52.8276 28.3979 52.5676 27.9365 52.1048C27.475 51.6419 27.2158 51.0142 27.2158 50.3597V47.729C27.2162 47.0749 27.4757 46.4477 27.9371 45.9855C28.3986 45.5232 29.0242 45.2638 29.6763 45.2642H38.398C39.0501 45.2638 39.6757 45.5232 40.1371 45.9855C40.5985 46.4477 40.858 47.0749 40.8584 47.729H40.8586Z" fill="#D0CDE1"/>
<path opacity="0.1" d="M40.8586 47.729V47.9974C40.0577 49.0506 39.0253 49.9041 37.8417 50.4916C36.6582 51.0791 35.3554 51.3848 34.0349 51.3848C32.7144 51.3848 31.4116 51.0791 30.2281 50.4916C29.0446 49.9041 28.0121 49.0506 27.2112 47.9974V47.729C27.2116 47.0749 27.4711 46.4477 27.9325 45.9855C28.394 45.5232 29.0196 45.2638 29.6717 45.2642H38.3935C38.7168 45.2634 39.0371 45.3265 39.336 45.45C39.6349 45.5735 39.9067 45.7549 40.1356 45.9838C40.3646 46.2128 40.5463 46.4848 40.6704 46.7842C40.7944 47.0837 40.8584 47.4047 40.8586 47.729Z" fill="black"/>
<path d="M26.1462 23.2183H41.9236C42.1074 23.2183 42.2837 23.2916 42.4137 23.422C42.5437 23.5523 42.6167 23.7292 42.6167 23.9136V43.7125C42.6167 45.6911 41.8331 47.5888 40.4382 48.9879C39.0433 50.387 37.1514 51.173 35.1788 51.173H32.891C30.9184 51.173 29.0265 50.387 27.6316 48.9879C26.2367 47.5888 25.4531 45.6911 25.4531 43.7125V23.9136C25.4531 23.7292 25.5261 23.5523 25.6561 23.422C25.7861 23.2916 25.9624 23.2183 26.1462 23.2183Z" fill="#D0CDE1"/>
<path d="M28.9994 15.4125H38.946C40.4045 15.4125 41.587 16.3352 41.587 17.4735V23.3782C41.587 23.7885 41.1608 24.1209 40.6354 24.1209H27.3101C26.7845 24.1209 26.3585 23.7883 26.3585 23.3782V17.4726C26.3585 16.3344 27.541 15.4116 28.9995 15.4116L28.9994 15.4125Z" fill="#D0CDE1"/>
<path opacity="0.2" d="M39.2022 19.9338H28.5049V20.7257H39.2022V19.9338Z" fill="black"/>
<path opacity="0.1" d="M40.8569 25.7599H27.2127V35.6916H40.8569V25.7599Z" fill="black"/>
<path d="M40.8569 25.5436H27.2127V35.4752H40.8569V25.5436Z" fill="#A55EEA"/>
<g opacity="0.1">
<path opacity="0.1" d="M30.2413 37.1772H27.4067C27.3418 37.1772 27.2893 37.23 27.2893 37.2951V38.1584C27.2893 38.2234 27.3418 38.2762 27.4067 38.2762H30.2413C30.3062 38.2762 30.3587 38.2234 30.3587 38.1584V37.2951C30.3587 37.23 30.3062 37.1772 30.2413 37.1772Z" fill="black"/>
<path opacity="0.1" d="M33.7147 37.1772H30.8802C30.8153 37.1772 30.7627 37.23 30.7627 37.2951V38.1584C30.7627 38.2234 30.8153 38.2762 30.8802 38.2762H33.7147C33.7796 38.2762 33.8322 38.2234 33.8322 38.1584V37.2951C33.8322 37.23 33.7796 37.1772 33.7147 37.1772Z" fill="black"/>
<path opacity="0.1" d="M37.1882 37.1772H34.3536C34.2887 37.1772 34.2361 37.23 34.2361 37.2951V38.1584C34.2361 38.2234 34.2887 38.2762 34.3536 38.2762H37.1882C37.253 38.2762 37.3056 38.2234 37.3056 38.1584V37.2951C37.3056 37.23 37.253 37.1772 37.1882 37.1772Z" fill="black"/>
<path opacity="0.1" d="M40.6631 37.1772H37.8285C37.7636 37.1772 37.7111 37.23 37.7111 37.2951V38.1584C37.7111 38.2234 37.7636 38.2762 37.8285 38.2762H40.6631C40.7279 38.2762 40.7805 38.2234 40.7805 38.1584V37.2951C40.7805 37.23 40.7279 37.1772 40.6631 37.1772Z" fill="black"/>
<path opacity="0.1" d="M30.2413 39.329H27.4067C27.3418 39.329 27.2893 39.3818 27.2893 39.4469V40.3102C27.2893 40.3752 27.3418 40.428 27.4067 40.428H30.2413C30.3062 40.428 30.3587 40.3752 30.3587 40.3102V39.4469C30.3587 39.3818 30.3062 39.329 30.2413 39.329Z" fill="black"/>
<path opacity="0.1" d="M33.7147 39.329H30.8802C30.8153 39.329 30.7627 39.3818 30.7627 39.4469V40.3102C30.7627 40.3752 30.8153 40.428 30.8802 40.428H33.7147C33.7796 40.428 33.8322 40.3752 33.8322 40.3102V39.4469C33.8322 39.3818 33.7796 39.329 33.7147 39.329Z" fill="black"/>
<path opacity="0.1" d="M37.1882 39.329H34.3536C34.2887 39.329 34.2361 39.3818 34.2361 39.4469V40.3102C34.2361 40.3752 34.2887 40.428 34.3536 40.428H37.1882C37.253 40.428 37.3056 40.3752 37.3056 40.3102V39.4469C37.3056 39.3818 37.253 39.329 37.1882 39.329Z" fill="black"/>
<path opacity="0.1" d="M30.2413 41.427H27.4067C27.3418 41.427 27.2893 41.4798 27.2893 41.5448V42.4081C27.2893 42.4732 27.3418 42.526 27.4067 42.526H30.2413C30.3062 42.526 30.3587 42.4732 30.3587 42.4081V41.5448C30.3587 41.4798 30.3062 41.427 30.2413 41.427Z" fill="black"/>
<path opacity="0.1" d="M33.7147 41.427H30.8802C30.8153 41.427 30.7627 41.4798 30.7627 41.5448V42.4081C30.7627 42.4732 30.8153 42.526 30.8802 42.526H33.7147C33.7796 42.526 33.8322 42.4732 33.8322 42.4081V41.5448C33.8322 41.4798 33.7796 41.427 33.7147 41.427Z" fill="black"/>
<path opacity="0.1" d="M37.1882 41.427H34.3536C34.2887 41.427 34.2361 41.4798 34.2361 41.5448V42.4081C34.2361 42.4732 34.2887 42.526 34.3536 42.526H37.1882C37.253 42.526 37.3056 42.4732 37.3056 42.4081V41.5448C37.3056 41.4798 37.253 41.427 37.1882 41.427Z" fill="black"/>
<path opacity="0.1" d="M30.2413 43.7415H27.4067C27.3418 43.7415 27.2893 43.7943 27.2893 43.8593V44.7227C27.2893 44.7877 27.3418 44.8405 27.4067 44.8405H30.2413C30.3062 44.8405 30.3587 44.7877 30.3587 44.7227V43.8593C30.3587 43.7943 30.3062 43.7415 30.2413 43.7415Z" fill="black"/>
<path opacity="0.1" d="M33.7147 43.7415H30.8802C30.8153 43.7415 30.7627 43.7943 30.7627 43.8593V44.7227C30.7627 44.7877 30.8153 44.8405 30.8802 44.8405H33.7147C33.7796 44.8405 33.8322 44.7877 33.8322 44.7227V43.8593C33.8322 43.7943 33.7796 43.7415 33.7147 43.7415Z" fill="black"/>
<path opacity="0.1" d="M37.1882 43.7415H34.3536C34.2887 43.7415 34.2361 43.7943 34.2361 43.8593V44.7227C34.2361 44.7877 34.2887 44.8405 34.3536 44.8405H37.1882C37.253 44.8405 37.3056 44.7877 37.3056 44.7227V43.8593C37.3056 43.7943 37.253 43.7415 37.1882 43.7415Z" fill="black"/>
<path opacity="0.1" d="M40.6631 39.329H37.8285C37.7636 39.329 37.7111 39.3818 37.7111 39.4469V40.3102C37.7111 40.3752 37.7636 40.428 37.8285 40.428H40.6631C40.7279 40.428 40.7805 40.3752 40.7805 40.3102V39.4469C40.7805 39.3818 40.7279 39.329 40.6631 39.329Z" fill="black"/>
<path opacity="0.1" d="M40.3269 41.3089H38.1922C38.0304 41.3089 37.8993 41.4404 37.8993 41.6027V44.9319C37.8993 45.0941 38.0304 45.2257 38.1922 45.2257H40.3269C40.4887 45.2257 40.6198 45.0941 40.6198 44.9319V41.6027C40.6198 41.4404 40.4887 41.3089 40.3269 41.3089Z" fill="black"/>
</g>
<path d="M30.2413 36.9608H27.4067C27.3418 36.9608 27.2893 37.0136 27.2893 37.0787V37.942C27.2893 38.007 27.3418 38.0598 27.4067 38.0598H30.2413C30.3062 38.0598 30.3587 38.007 30.3587 37.942V37.0787C30.3587 37.0136 30.3062 36.9608 30.2413 36.9608Z" fill="white"/>
<path d="M33.7147 36.9608H30.8802C30.8153 36.9608 30.7627 37.0136 30.7627 37.0787V37.942C30.7627 38.007 30.8153 38.0598 30.8802 38.0598H33.7147C33.7796 38.0598 33.8322 38.007 33.8322 37.942V37.0787C33.8322 37.0136 33.7796 36.9608 33.7147 36.9608Z" fill="white"/>
<path d="M37.1882 36.9608H34.3536C34.2887 36.9608 34.2361 37.0136 34.2361 37.0787V37.942C34.2361 38.007 34.2887 38.0598 34.3536 38.0598H37.1882C37.253 38.0598 37.3056 38.007 37.3056 37.942V37.0787C37.3056 37.0136 37.253 36.9608 37.1882 36.9608Z" fill="white"/>
<path d="M40.6631 36.9608H37.8285C37.7636 36.9608 37.7111 37.0136 37.7111 37.0787V37.942C37.7111 38.007 37.7636 38.0598 37.8285 38.0598H40.6631C40.7279 38.0598 40.7805 38.007 40.7805 37.942V37.0787C40.7805 37.0136 40.7279 36.9608 40.6631 36.9608Z" fill="#2F2E41"/>
<path d="M30.2413 39.1127H27.4067C27.3418 39.1127 27.2893 39.1654 27.2893 39.2305V40.0938C27.2893 40.1589 27.3418 40.2116 27.4067 40.2116H30.2413C30.3062 40.2116 30.3587 40.1589 30.3587 40.0938V39.2305C30.3587 39.1654 30.3062 39.1127 30.2413 39.1127Z" fill="white"/>
<path d="M33.7147 39.1127H30.8802C30.8153 39.1127 30.7627 39.1654 30.7627 39.2305V40.0938C30.7627 40.1589 30.8153 40.2116 30.8802 40.2116H33.7147C33.7796 40.2116 33.8322 40.1589 33.8322 40.0938V39.2305C33.8322 39.1654 33.7796 39.1127 33.7147 39.1127Z" fill="white"/>
<path d="M37.1882 39.1127H34.3536C34.2887 39.1127 34.2361 39.1654 34.2361 39.2305V40.0938C34.2361 40.1589 34.2887 40.2116 34.3536 40.2116H37.1882C37.253 40.2116 37.3056 40.1589 37.3056 40.0938V39.2305C37.3056 39.1654 37.253 39.1127 37.1882 39.1127Z" fill="white"/>
<path d="M30.2413 41.2106H27.4067C27.3418 41.2106 27.2893 41.2634 27.2893 41.3285V42.1918C27.2893 42.2568 27.3418 42.3096 27.4067 42.3096H30.2413C30.3062 42.3096 30.3587 42.2568 30.3587 42.1918V41.3285C30.3587 41.2634 30.3062 41.2106 30.2413 41.2106Z" fill="white"/>
<path d="M33.7147 41.2106H30.8802C30.8153 41.2106 30.7627 41.2634 30.7627 41.3285V42.1918C30.7627 42.2568 30.8153 42.3096 30.8802 42.3096H33.7147C33.7796 42.3096 33.8322 42.2568 33.8322 42.1918V41.3285C33.8322 41.2634 33.7796 41.2106 33.7147 41.2106Z" fill="white"/>
<path d="M37.1882 41.2106H34.3536C34.2887 41.2106 34.2361 41.2634 34.2361 41.3285V42.1918C34.2361 42.2568 34.2887 42.3096 34.3536 42.3096H37.1882C37.253 42.3096 37.3056 42.2568 37.3056 42.1918V41.3285C37.3056 41.2634 37.253 41.2106 37.1882 41.2106Z" fill="white"/>
<path d="M30.2413 43.5251H27.4067C27.3418 43.5251 27.2893 43.5779 27.2893 43.643V44.5063C27.2893 44.5713 27.3418 44.6241 27.4067 44.6241H30.2413C30.3062 44.6241 30.3587 44.5713 30.3587 44.5063V43.643C30.3587 43.5779 30.3062 43.5251 30.2413 43.5251Z" fill="white"/>
<path d="M33.7147 43.5251H30.8802C30.8153 43.5251 30.7627 43.5779 30.7627 43.643V44.5063C30.7627 44.5713 30.8153 44.6241 30.8802 44.6241H33.7147C33.7796 44.6241 33.8322 44.5713 33.8322 44.5063V43.643C33.8322 43.5779 33.7796 43.5251 33.7147 43.5251Z" fill="white"/>
<path d="M37.1882 43.5251H34.3536C34.2887 43.5251 34.2361 43.5779 34.2361 43.643V44.5063C34.2361 44.5713 34.2887 44.6241 34.3536 44.6241H37.1882C37.253 44.6241 37.3056 44.5713 37.3056 44.5063V43.643C37.3056 43.5779 37.253 43.5251 37.1882 43.5251Z" fill="white"/>
<path d="M40.6631 39.1127H37.8285C37.7636 39.1127 37.7111 39.1654 37.7111 39.2305V40.0938C37.7111 40.1589 37.7636 40.2116 37.8285 40.2116H40.6631C40.7279 40.2116 40.7805 40.1589 40.7805 40.0938V39.2305C40.7805 39.1654 40.7279 39.1127 40.6631 39.1127Z" fill="#2F2E41"/>
<path d="M40.3269 41.094H38.1922C38.0304 41.094 37.8993 41.2256 37.8993 41.3878V44.717C37.8993 44.8793 38.0304 45.0108 38.1922 45.0108H40.3269C40.4887 45.0108 40.6198 44.8793 40.6198 44.717V41.3878C40.6198 41.2256 40.4887 41.094 40.3269 41.094Z" fill="#A55EEA"/>
<path d="M35.4862 34.2689H34.0158V34.4455H35.4862V34.2689Z" fill="white"/>
<path d="M37.5457 34.2689H36.0753V34.4455H37.5457V34.2689Z" fill="white"/>
<path d="M39.6054 34.2689H38.1349V34.4455H39.6054V34.2689Z" fill="white"/>
</g>
<defs>
<clipPath id="clip0">
<rect width="106" height="115" fill="white"/>
</clipPath>
</defs>
</svg>
